<svg width="34" height="34" viewBox="0 0 34 34" fill="none" xmlns="http://www.w3.org/2000/svg">
<g clip-path="url(#clip0_3_83)">
<path d="M21.56 19.44C22.24 18.94 23 18.45 23.85 17.94C24.7 17.43 25.44 17 26.06 16.64L25.99 16.42C25.47 16.32 24.9 16.2 24.26 16.07C23.63 15.93 22.99 15.78 22.37 15.62C21.74 15.46 21.17 15.3 20.65 15.15L17.26 14.13C17.28 13.82 17.32 13.49 17.38 13.16C17.44 12.83 17.52 12.52 17.6 12.22C17.73 11.78 17.9 11.35 18.09 10.93C18.29 10.51 18.49 10.1 18.71 9.72L33.22 14.07C33.26 14.88 33.28 15.57 33.26 16.13C33.24 16.69 33.17 17.18 33.05 17.61C32.97 17.89 32.83 18.18 32.63 18.48C32.43 18.78 32.19 19.03 31.9 19.23L24.51 24.42C23.86 24.87 23.16 25.33 22.4 25.82C21.65 26.31 20.92 26.74 20.23 27.11L20.3 27.33C20.93 27.45 21.54 27.57 22.11 27.7C22.69 27.83 23.23 27.97 23.75 28.13L25.28 28.59C25.96 28.79 26.67 28.96 27.4 29.08C28.13 29.2 28.81 29.22 29.45 29.14C29.6 30.2 29.57 31.09 29.36 31.8C29.12 32.6 28.68 33.17 28.04 33.51C27.4 33.85 26.44 33.83 25.18 33.45L12.6 29.67C12.55 28.87 12.54 28.23 12.57 27.75C12.6 27.27 12.67 26.86 12.77 26.51C12.87 26.16 13.04 25.85 13.28 25.52C13.52 25.19 13.87 24.87 14.33 24.56L21.54 19.45L21.56 19.44Z" fill="white"/>
<path d="M18.85 19.53C19.55 19.06 20.33 18.58 21.19 18.11C22.05 17.64 22.81 17.23 23.44 16.88L23.38 16.66C22.87 16.55 22.29 16.41 21.66 16.25C21.03 16.09 20.4 15.92 19.78 15.74C19.16 15.56 18.59 15.38 18.08 15.21L14.73 14.08C14.76 13.77 14.81 13.44 14.88 13.12C14.95 12.79 15.04 12.48 15.13 12.19C15.28 11.75 15.45 11.33 15.66 10.91C15.87 10.49 16.09 10.1 16.32 9.72L30.68 14.54C30.7 15.36 30.68 16.04 30.66 16.6C30.63 17.16 30.54 17.64 30.4 18.07C30.31 18.35 30.16 18.63 29.95 18.92C29.74 19.21 29.49 19.46 29.2 19.65L21.65 24.59C20.99 25.01 20.27 25.46 19.5 25.92C18.73 26.38 18 26.79 17.29 27.14L17.35 27.36C17.98 27.5 18.58 27.64 19.15 27.79C19.72 27.94 20.26 28.1 20.77 28.27L22.28 28.78C22.96 29.01 23.66 29.19 24.38 29.34C25.11 29.49 25.79 29.53 26.42 29.46C26.54 30.53 26.48 31.41 26.24 32.11C25.97 32.9 25.51 33.46 24.86 33.78C24.21 34.1 23.25 34.05 22 33.63L9.55 29.45C9.53 28.65 9.54 28.01 9.59 27.53C9.64 27.05 9.72 26.64 9.83 26.3C9.94 25.96 10.12 25.64 10.38 25.32C10.63 25 10.99 24.69 11.46 24.39L18.83 19.52L18.85 19.53Z" fill="#1C1C1C"/>
<path d="M6.17 10.49C6.57 10.36 7.01 10.24 7.5 10.13C7.99 10.02 8.4 9.92999 8.76 9.84999V9.72999C8.53 9.59999 8.27 9.45999 7.99 9.28999C7.71 9.12999 7.43 8.95999 7.15 8.77999C6.87 8.60999 6.63 8.43999 6.4 8.28999L4.94 7.27999C5 7.12999 5.07 6.97999 5.15 6.83999C5.23 6.68999 5.31 6.54999 5.4 6.42999C5.53 6.23999 5.68 6.05999 5.83 5.88999C5.99 5.71999 6.15 5.55999 6.31 5.40999L12.57 9.71999C12.47 10.12 12.37 10.45 12.27 10.71C12.18 10.97 12.07 11.2 11.94 11.38C11.86 11.5 11.75 11.62 11.61 11.73C11.47 11.84 11.32 11.93 11.15 11.98L6.82 13.32C6.44 13.43 6.03 13.55 5.6 13.66C5.16 13.78 4.75 13.87 4.37 13.94V14.06C4.65 14.21 4.92 14.37 5.18 14.52C5.44 14.67 5.67 14.82 5.9 14.98L6.56 15.43C6.85 15.63 7.17 15.82 7.5 15.99C7.83 16.16 8.15 16.28 8.47 16.33C8.38 16.86 8.23 17.28 8.02 17.59C7.78 17.94 7.48 18.14 7.13 18.2C6.77 18.26 6.32 18.11 5.77 17.73L0.32 13.99C0.42 13.6 0.51 13.29 0.6 13.07C0.69 12.85 0.78 12.66 0.89 12.51C1 12.36 1.12 12.23 1.29 12.12C1.46 12 1.67 11.9 1.94 11.82L6.17 10.49Z" fill="white"/>
<path d="M5.85 9.95C6.25 9.82 6.69 9.7 7.18 9.59C7.67 9.48 8.08 9.39 8.44 9.31V9.18999C8.21 9.05999 7.95 8.92 7.67 8.75C7.39 8.59 7.11 8.42 6.83 8.24C6.55 8.07 6.31 7.9 6.08 7.75L4.62 6.74C4.68 6.58999 4.75 6.44 4.83 6.3C4.91 6.15 4.99 6.01 5.08 5.89C5.21 5.7 5.36 5.52 5.51 5.35C5.67 5.18 5.83 5.02 5.99 4.87L12.25 9.18C12.15 9.58 12.05 9.91 11.95 10.17C11.86 10.43 11.75 10.66 11.62 10.84C11.54 10.96 11.43 11.08 11.29 11.19C11.15 11.3 11 11.39 10.83 11.44L6.5 12.78C6.12 12.89 5.71 13.01 5.28 13.12C4.84 13.24 4.43 13.33 4.05 13.4V13.52C4.33 13.67 4.6 13.83 4.86 13.98C5.12 14.13 5.35 14.28 5.58 14.44L6.24 14.89C6.53 15.09 6.85 15.28 7.18 15.45C7.51 15.62 7.83 15.74 8.15 15.79C8.06 16.32 7.91 16.74 7.7 17.05C7.46 17.4 7.16 17.6 6.81 17.66C6.45 17.72 6 17.57 5.45 17.19L0 13.46C0.1 13.07 0.19 12.76 0.28 12.54C0.37 12.32 0.46 12.13 0.57 11.98C0.68 11.83 0.8 11.7 0.97 11.59C1.14 11.47 1.35 11.37 1.62 11.29L5.85 9.96V9.95Z" fill="#1C1C1C"/>
<path d="M15.47 4.14C15.51 3.85 15.58 3.55 15.66 3.22C15.74 2.89 15.82 2.61 15.88 2.37L15.81 2.33C15.66 2.43 15.49 2.54 15.3 2.66C15.11 2.78 14.92 2.9 14.73 3.01C14.54 3.12 14.36 3.22 14.2 3.31L13.13 3.89C13.06 3.81 12.99 3.72 12.92 3.63C12.85 3.53 12.8 3.44 12.75 3.35C12.68 3.21 12.61 3.07 12.56 2.92C12.5 2.77 12.46 2.62 12.42 2.47L17 0C17.21 0.19 17.38 0.35 17.51 0.49C17.64 0.63 17.74 0.77 17.82 0.9C17.87 0.99 17.9 1.09 17.93 1.21C17.95 1.33 17.96 1.45 17.93 1.57L17.39 4.62C17.34 4.89 17.28 5.17 17.22 5.47C17.16 5.77 17.08 6.05 17.01 6.31L17.08 6.35C17.26 6.22 17.44 6.11 17.61 6C17.78 5.89 17.95 5.79 18.11 5.71L18.59 5.45C18.81 5.33 19.02 5.2 19.22 5.06C19.43 4.91 19.6 4.75 19.73 4.58C20.03 4.8 20.23 5.02 20.35 5.25C20.49 5.5 20.52 5.75 20.44 5.99C20.37 6.23 20.13 6.45 19.73 6.67L15.76 8.81C15.55 8.63 15.4 8.47 15.29 8.35C15.18 8.23 15.1 8.11 15.04 8C14.98 7.89 14.94 7.77 14.92 7.63C14.9 7.49 14.91 7.33 14.94 7.14L15.45 4.15L15.47 4.14Z" fill="white"/>
<path d="M15.04 4.17C15.08 3.88 15.15 3.58 15.23 3.25C15.31 2.92 15.39 2.64 15.45 2.4L15.38 2.36C15.23 2.46 15.06 2.57 14.87 2.69C14.68 2.81 14.49 2.93 14.3 3.04C14.11 3.15 13.93 3.25 13.77 3.34L12.7 3.92C12.63 3.84 12.56 3.75 12.49 3.66C12.42 3.56 12.37 3.47 12.32 3.38C12.25 3.24 12.18 3.1 12.13 2.95C12.07 2.8 12.03 2.65 11.99 2.5L16.58 0.0299988C16.79 0.219999 16.96 0.379999 17.09 0.519999C17.22 0.659999 17.32 0.799999 17.4 0.929999C17.45 1.02 17.48 1.12 17.51 1.24C17.53 1.36 17.54 1.48 17.51 1.6L16.97 4.65C16.92 4.92 16.86 5.2 16.8 5.5C16.74 5.8 16.66 6.08 16.59 6.34L16.66 6.38C16.84 6.25 17.02 6.14 17.19 6.03C17.36 5.92 17.53 5.82 17.69 5.74L18.17 5.48C18.39 5.36 18.6 5.23 18.8 5.09C19.01 4.94 19.18 4.78 19.31 4.61C19.61 4.83 19.81 5.05 19.93 5.28C20.07 5.53 20.1 5.78 20.02 6.02C19.95 6.26 19.71 6.48 19.31 6.7L15.34 8.84C15.13 8.66 14.98 8.5 14.87 8.38C14.76 8.26 14.68 8.14 14.62 8.03C14.56 7.92 14.52 7.8 14.5 7.66C14.48 7.52 14.49 7.36 14.52 7.17L15.03 4.18L15.04 4.17Z" fill="#1C1C1C"/>
</g>
<defs>
<clipPath id="clip0_3_83">
<rect width="33.29" height="34" fill="white"/>
</clipPath>
</defs>
</svg>
