<svg width="90" height="59" viewBox="0 0 90 59" fill="none" xmlns="http://www.w3.org/2000/svg">
<path d="M83.7246 48.7391H72.9088L72.9027 48.5064C72.7854 44.814 69.9271 41.7156 66.2108 41.4247C65.7076 41.3849 65.2014 41.3818 64.6952 41.4125C60.8183 41.6543 57.8212 44.8875 57.8212 48.7391H27.4051L27.3989 48.4911C27.3032 44.6487 24.2629 41.4584 20.3922 41.29C20.1946 41.2808 19.994 41.2777 19.7964 41.2808C15.7313 41.3359 12.5026 44.7069 12.5397 48.7391H4.98965C2.94319 48.7391 1.28564 47.095 1.28564 45.0651V4.95665C1.28564 2.92673 2.94319 1.28259 4.98965 1.28259H68.9085C79.1377 1.28259 87.4286 9.50635 87.4286 19.6529V45.0651C87.4286 47.095 85.771 48.7391 83.7246 48.7391Z" stroke="#FEA903" stroke-width="2" stroke-miterlimit="10"/>
<path d="M1.28564 14.1086H23.1428" stroke="#FEA903" stroke-width="2" stroke-miterlimit="10" stroke-linecap="round"/>
<path d="M2.57129 25.6522H15.4284" stroke="#FEA903" stroke-width="2" stroke-miterlimit="10" stroke-linecap="round"/>
<path d="M57.8569 1.28259V48.7391" stroke="#FEA903" stroke-width="2" stroke-miterlimit="10" stroke-linecap="round"/>
<path d="M57.8569 25.6522H87.4284" stroke="#FEA903" stroke-width="2" stroke-miterlimit="10" stroke-linecap="round"/>
<path d="M65.5712 56.4348C69.8317 56.4348 73.2855 52.9893 73.2855 48.7391C73.2855 44.4889 69.8317 41.0435 65.5712 41.0435C61.3107 41.0435 57.8569 44.4889 57.8569 48.7391C57.8569 52.9893 61.3107 56.4348 65.5712 56.4348Z" stroke="#FEA903" stroke-width="2" stroke-miterlimit="10" stroke-linecap="round"/>
<path d="M20.5715 56.4348C24.8319 56.4348 28.2858 52.9893 28.2858 48.7391C28.2858 44.4889 24.8319 41.0435 20.5715 41.0435C16.311 41.0435 12.8572 44.4889 12.8572 48.7391C12.8572 52.9893 16.311 56.4348 20.5715 56.4348Z" stroke="#FEA903" stroke-width="2" stroke-miterlimit="10" stroke-linecap="round"/>
</svg>
