<svg width="15" height="15" viewBox="0 0 15 15" fill="none" xmlns="http://www.w3.org/2000/svg">
<g clip-path="url(#clip0_358_263)">
<path d="M14.1956 2.54803C14.0198 2.33706 13.7997 2.16738 13.551 2.05104C13.3022 1.93471 13.0309 1.87457 12.7562 1.87491H2.65125L2.625 1.65553C2.57128 1.19954 2.35211 0.779116 2.00906 0.473957C1.666 0.168798 1.22289 0.000122068 0.76375 -9.15527e-05L0.625 -9.15527e-05C0.45924 -9.15527e-05 0.300268 0.0657565 0.183058 0.182967C0.065848 0.300177 0 0.459148 0 0.624908C0 0.790669 0.065848 0.94964 0.183058 1.06685C0.300268 1.18406 0.45924 1.24991 0.625 1.24991H0.76375C0.916833 1.24993 1.06459 1.30613 1.17898 1.40786C1.29338 1.50958 1.36646 1.64975 1.38437 1.80178L2.24437 9.11428C2.33366 9.87477 2.69905 10.576 3.27119 11.0849C3.84334 11.5938 4.58241 11.8749 5.34812 11.8749H11.875C12.0408 11.8749 12.1997 11.8091 12.3169 11.6918C12.4341 11.5746 12.5 11.4157 12.5 11.2499C12.5 11.0841 12.4341 10.9252 12.3169 10.808C12.1997 10.6908 12.0408 10.6249 11.875 10.6249H5.34812C4.96128 10.6238 4.58425 10.5031 4.26871 10.2793C3.95317 10.0555 3.71457 9.73962 3.58562 9.37491H11.0356C11.7683 9.37495 12.4777 9.11755 13.0399 8.64768C13.6021 8.17781 13.9813 7.52534 14.1112 6.80428L14.6019 4.08303C14.6508 3.81304 14.6398 3.53557 14.5696 3.27031C14.4994 3.00504 14.3717 2.75846 14.1956 2.54803ZM13.375 3.86116L12.8837 6.58241C12.8057 7.01553 12.5778 7.4074 12.2399 7.6894C11.902 7.97141 11.4757 8.12557 11.0356 8.12491H3.38687L2.79875 3.12491H12.7562C12.8481 3.12436 12.9389 3.14405 13.0222 3.18257C13.1055 3.22109 13.1794 3.2775 13.2385 3.34779C13.2975 3.41808 13.3404 3.50051 13.364 3.58924C13.3876 3.67797 13.3913 3.77081 13.375 3.86116Z" fill="#1C1C1C"/>
<path d="M4.375 14.9999C5.06536 14.9999 5.625 14.4403 5.625 13.7499C5.625 13.0596 5.06536 12.4999 4.375 12.4999C3.68464 12.4999 3.125 13.0596 3.125 13.7499C3.125 14.4403 3.68464 14.9999 4.375 14.9999Z" fill="#1C1C1C"/>
<path d="M10.625 14.9999C11.3154 14.9999 11.875 14.4403 11.875 13.7499C11.875 13.0596 11.3154 12.4999 10.625 12.4999C9.93464 12.4999 9.375 13.0596 9.375 13.7499C9.375 14.4403 9.93464 14.9999 10.625 14.9999Z" fill="#1C1C1C"/>
</g>
<defs>
<clipPath id="clip0_358_263">
<rect width="15" height="15" fill="white"/>
</clipPath>
</defs>
</svg>
