<svg width="100" height="42" viewBox="0 0 100 42" fill="none" xmlns="http://www.w3.org/2000/svg">
<g clip-path="url(#clip0_3_51)">
<path d="M89.7467 2.90177C89.9117 2.68551 90.1045 2.46139 90.3232 2.22744C90.5419 1.99349 90.7308 1.791 90.8919 1.61996L90.8501 1.55901C90.6791 1.57671 90.4883 1.5944 90.2775 1.61013C90.0668 1.62586 89.856 1.63765 89.6453 1.64748C89.4345 1.65731 89.2416 1.66124 89.0647 1.66124H87.9115C87.8877 1.56294 87.8698 1.45875 87.8578 1.35062C87.8459 1.24249 87.8399 1.14026 87.8399 1.04C87.8399 0.892551 87.8499 0.743137 87.8717 0.59569C87.8936 0.448242 87.9195 0.302761 87.9533 0.163177H92.89C92.9795 0.410889 93.0491 0.621247 93.0968 0.794252C93.1445 0.967257 93.1684 1.1265 93.1684 1.27002C93.1684 1.36438 93.1525 1.46661 93.1187 1.57671C93.0849 1.6868 93.0332 1.78706 92.9616 1.8775L91.1404 4.16392C90.9794 4.36248 90.8044 4.57087 90.6135 4.79106C90.4246 5.01125 90.2397 5.21178 90.0588 5.39068L90.1006 5.45162C90.3093 5.43 90.5101 5.41034 90.701 5.39854C90.8939 5.38478 91.0768 5.37888 91.2517 5.37888H91.7707C92.0033 5.37888 92.2399 5.36512 92.4785 5.33563C92.7171 5.30614 92.9318 5.24913 93.1227 5.16459C93.2698 5.47915 93.3434 5.75635 93.3434 5.99423C93.3434 6.26357 93.2598 6.48179 93.0908 6.64496C92.9218 6.80814 92.6216 6.89071 92.1902 6.89071H87.9075C87.8181 6.6489 87.7544 6.4523 87.7187 6.30092C87.6829 6.14954 87.665 6.01586 87.665 5.89986C87.665 5.78387 87.6868 5.66985 87.7326 5.54599C87.7783 5.42213 87.8578 5.29042 87.9712 5.15083L89.7427 2.9057L89.7467 2.90177Z" fill="white"/>
<path d="M81.9708 3.99091C82.09 3.89458 82.2233 3.79628 82.3724 3.69602C82.5215 3.59575 82.6507 3.50925 82.7621 3.43651L82.7462 3.39719C82.6507 3.38539 82.5454 3.36967 82.428 3.35197C82.3107 3.33428 82.1934 3.31462 82.0781 3.29299C81.9628 3.27137 81.8554 3.24974 81.76 3.22812L81.1317 3.08264C81.1317 3.02562 81.1357 2.96664 81.1417 2.9057C81.1496 2.84475 81.1596 2.78774 81.1715 2.73466C81.1914 2.65405 81.2152 2.57345 81.247 2.49678C81.2769 2.41814 81.3107 2.34343 81.3465 2.27069L84.0385 2.8939C84.0564 3.03938 84.0663 3.16324 84.0703 3.2635C84.0743 3.36377 84.0664 3.4542 84.0485 3.53088C84.0365 3.58199 84.0147 3.63704 83.9809 3.69209C83.949 3.74713 83.9073 3.79628 83.8576 3.8356L82.5692 4.85201C82.4559 4.94047 82.3326 5.03091 82.2014 5.12724C82.0702 5.22357 81.9429 5.30811 81.8216 5.38478L81.8375 5.4241C81.9548 5.43786 82.0662 5.45359 82.1716 5.47128C82.2769 5.48898 82.3783 5.50667 82.4738 5.53026L82.7561 5.59514C82.8834 5.62463 83.0126 5.64626 83.1478 5.66002C83.283 5.67378 83.4063 5.66985 83.5216 5.64822C83.5613 5.83892 83.5653 5.99816 83.5355 6.12792C83.4997 6.27537 83.4261 6.38153 83.3128 6.45034C83.1995 6.51915 83.0265 6.52504 82.7899 6.47196L80.4557 5.93132C80.4378 5.78781 80.4279 5.67181 80.4299 5.58531C80.4299 5.49881 80.4378 5.4241 80.4518 5.35923C80.4657 5.29828 80.4935 5.23733 80.5353 5.17442C80.575 5.11348 80.6367 5.05057 80.7162 4.98962L81.9708 3.98895V3.99091Z" fill="white"/>
<path d="M77.6046 3.91424C77.6801 3.85133 77.7676 3.78842 77.863 3.72354C77.9585 3.65866 78.042 3.60361 78.1135 3.55643L78.1036 3.53087C78.042 3.52301 77.9744 3.51318 77.8988 3.50138C77.8233 3.48959 77.7477 3.47779 77.6741 3.46403C77.5986 3.45027 77.531 3.43651 77.4694 3.42078L77.0657 3.32641C77.0657 3.28906 77.0677 3.25171 77.0737 3.21239C77.0777 3.17307 77.0856 3.13768 77.0936 3.10229C77.1055 3.04921 77.1214 2.9981 77.1413 2.94895C77.1612 2.8998 77.1831 2.85065 77.2049 2.80347L78.9367 3.20452C78.9486 3.29889 78.9546 3.37753 78.9565 3.44241C78.9585 3.50728 78.9546 3.56429 78.9426 3.61541C78.9347 3.64883 78.9208 3.68225 78.8989 3.71961C78.877 3.75499 78.8512 3.78645 78.8194 3.81201L77.9903 4.46667C77.9167 4.52369 77.8392 4.58266 77.7537 4.64361C77.6682 4.70652 77.5867 4.76157 77.5091 4.80875L77.5191 4.83431C77.5946 4.84414 77.6662 4.85397 77.7338 4.8638C77.8014 4.87559 77.867 4.88739 77.9286 4.90115L78.1116 4.94244C78.1931 4.9621 78.2766 4.97586 78.3641 4.98372C78.4496 4.99355 78.5311 4.98962 78.6046 4.97586C78.6305 5.09775 78.6325 5.20194 78.6126 5.28451C78.5907 5.37888 78.543 5.44769 78.4694 5.49291C78.3959 5.53616 78.2845 5.54206 78.1334 5.50667L76.6303 5.15869C76.6184 5.06629 76.6124 4.99159 76.6124 4.93654C76.6124 4.88149 76.6164 4.83234 76.6263 4.79106C76.6363 4.75174 76.6542 4.71242 76.68 4.6731C76.7059 4.63378 76.7456 4.59446 76.7973 4.55318L77.6046 3.90834V3.91424Z" fill="white"/>
<path d="M74.4811 4.28383C74.5149 4.2563 74.5547 4.22681 74.5964 4.19929C74.6402 4.1698 74.6759 4.14621 74.7078 4.12458L74.7038 4.11279C74.6759 4.10886 74.6461 4.10492 74.6123 4.09903C74.5785 4.09313 74.5447 4.08723 74.5109 4.08133C74.4771 4.07544 74.4473 4.06954 74.4195 4.06167L74.2385 4.02039C74.2385 4.00466 74.2385 3.98697 74.2425 3.96927C74.2445 3.95158 74.2485 3.93585 74.2505 3.92012C74.2564 3.89653 74.2624 3.87294 74.2723 3.85131C74.2823 3.82772 74.2902 3.8061 74.3022 3.78644L75.0796 3.96534C75.0855 4.00663 75.0875 4.04398 75.0895 4.0715C75.0895 4.10099 75.0895 4.12655 75.0835 4.14818C75.0796 4.1639 75.0736 4.17767 75.0636 4.19536C75.0537 4.21109 75.0418 4.22485 75.0279 4.23664L74.6561 4.52957C74.6223 4.55513 74.5885 4.58069 74.5487 4.61018C74.5109 4.6377 74.4731 4.66326 74.4393 4.68488L74.4433 4.69668C74.4771 4.70061 74.5089 4.70454 74.5407 4.71044C74.5726 4.71634 74.6004 4.72027 74.6282 4.72814L74.7097 4.7478C74.7455 4.75566 74.7833 4.76352 74.8231 4.76746C74.8628 4.77139 74.8986 4.76942 74.9304 4.76352C74.9424 4.81857 74.9424 4.86379 74.9344 4.90311C74.9245 4.94636 74.9026 4.97585 74.8708 4.99551C74.839 5.01517 74.7873 5.01713 74.7197 5.00141L74.0457 4.84609C74.0397 4.80481 74.0377 4.77139 74.0377 4.74583C74.0377 4.72027 74.0397 4.69865 74.0437 4.68095C74.0477 4.66326 74.0556 4.64557 74.0675 4.62787C74.0795 4.61018 74.0974 4.59248 74.1192 4.57479L74.4811 4.28579V4.28383Z" fill="white"/>
<path d="M92.4805 10.5081C92.6137 10.3252 92.7708 10.1365 92.9458 9.93991C93.1227 9.74331 93.2758 9.57227 93.4051 9.42876L93.3713 9.37764C93.2341 9.39337 93.079 9.40713 92.908 9.42089C92.737 9.43466 92.568 9.44449 92.397 9.45235C92.226 9.46021 92.071 9.46415 91.9278 9.46415H90.9973C90.9774 9.38157 90.9635 9.29311 90.9536 9.20267C90.9436 9.11224 90.9397 9.02377 90.9397 8.9412C90.9397 8.81538 90.9476 8.69152 90.9655 8.5657C90.9834 8.43988 91.0053 8.31995 91.0311 8.202H95.0195C95.0931 8.41039 95.1487 8.58732 95.1865 8.73281C95.2243 8.87829 95.2442 9.01197 95.2442 9.13386C95.2442 9.2125 95.2303 9.299 95.2044 9.39337C95.1786 9.48577 95.1348 9.57031 95.0772 9.64698L93.6059 11.5736C93.4746 11.7407 93.3335 11.9157 93.1804 12.1025C93.0273 12.2873 92.8782 12.4563 92.733 12.6077L92.7668 12.6588C92.9358 12.6392 93.0969 12.6254 93.252 12.6136C93.407 12.6018 93.5562 12.5959 93.6973 12.5959H94.1168C94.3037 12.5959 94.4946 12.5841 94.6895 12.5586C94.8823 12.535 95.0553 12.4858 95.2104 12.4131C95.3297 12.6785 95.3893 12.9105 95.3893 13.113C95.3893 13.341 95.3217 13.5239 95.1845 13.6615C95.0493 13.7991 94.8068 13.8699 94.4568 13.8699H90.9973C90.9237 13.6654 90.874 13.5003 90.8442 13.3725C90.8164 13.2447 90.8005 13.1326 90.8005 13.0343C90.8005 12.936 90.8184 12.8397 90.8561 12.7355C90.8919 12.6313 90.9575 12.5212 91.049 12.4033L92.4805 10.51V10.5081Z" fill="white"/>
<path d="M92.1823 9.89275C92.3155 9.70991 92.4725 9.52118 92.6475 9.32458C92.8245 9.12799 92.9775 8.95695 93.1068 8.81343L93.073 8.76232C92.9358 8.77804 92.7807 8.79181 92.6097 8.80557C92.4387 8.81933 92.2697 8.82916 92.0987 8.83702C91.9278 8.84489 91.7727 8.84882 91.6295 8.84882H90.699C90.6791 8.76625 90.6652 8.67778 90.6553 8.58735C90.6453 8.49691 90.6414 8.40844 90.6414 8.32587C90.6414 8.20005 90.6493 8.07619 90.6672 7.95037C90.6851 7.82455 90.707 7.70463 90.7328 7.58667H94.7212C94.7948 7.79506 94.8505 7.972 94.8882 8.11748C94.926 8.26296 94.9459 8.39665 94.9459 8.51854C94.9459 8.59718 94.932 8.68368 94.9061 8.77805C94.8803 8.87045 94.8365 8.95498 94.7789 9.03165L93.3076 10.9583C93.1764 11.1254 93.0352 11.3004 92.8821 11.4871C92.729 11.6719 92.5799 11.841 92.4348 11.9924L92.4686 12.0435C92.6376 12.0239 92.7986 12.0101 92.9537 11.9983C93.1088 11.9865 93.2579 11.9806 93.3991 11.9806H93.8186C94.0055 11.9806 94.1963 11.9688 94.3912 11.9432C94.584 11.9197 94.757 11.8705 94.9121 11.7978C95.0314 12.0632 95.091 12.2952 95.091 12.4977C95.091 12.7257 95.0234 12.9085 94.8862 13.0462C94.751 13.1838 94.5085 13.2545 94.1586 13.2545H90.699C90.6255 13.0501 90.5758 12.8849 90.5459 12.7572C90.5181 12.6294 90.5022 12.5173 90.5022 12.419C90.5022 12.3207 90.5201 12.2244 90.5579 12.1202C90.5937 12.016 90.6593 11.9059 90.7507 11.7879L92.1823 9.89471V9.89275Z" fill="#1C1C1C"/>
<path d="M47.9382 14.0233H75.835" stroke="white" stroke-width="2" stroke-miterlimit="10" stroke-linecap="round"/>
<path d="M89.377 2.73859C89.542 2.52233 89.7348 2.29821 89.9535 2.06426C90.1723 1.83031 90.3611 1.62782 90.5222 1.45678L90.4804 1.39584C90.3094 1.41353 90.1186 1.43122 89.9078 1.44695C89.6971 1.46268 89.4863 1.47447 89.2756 1.4843C89.0648 1.49413 88.872 1.49807 88.695 1.49807H87.5418C87.518 1.39977 87.5001 1.29557 87.4881 1.18744C87.4762 1.07931 87.4703 0.977085 87.4703 0.87682C87.4703 0.729373 87.4802 0.57996 87.5021 0.432512C87.5239 0.285065 87.5498 0.139584 87.5836 0H92.5204C92.6098 0.247712 92.6794 0.45807 92.7271 0.631075C92.7748 0.80408 92.7987 0.963323 92.7987 1.10684C92.7987 1.2012 92.7828 1.30343 92.749 1.41353C92.7152 1.52362 92.6635 1.62389 92.5919 1.71432L90.7707 4.00074C90.6097 4.1993 90.4347 4.40769 90.2438 4.62788C90.055 4.84807 89.87 5.0486 89.6891 5.2275L89.7309 5.28845C89.9396 5.26682 90.1404 5.24716 90.3313 5.23537C90.5242 5.2216 90.7071 5.21571 90.8821 5.21571H91.401C91.6336 5.21571 91.8702 5.20194 92.1088 5.17245C92.3474 5.14296 92.5621 5.08595 92.753 5.00142C92.9001 5.31597 92.9737 5.59317 92.9737 5.83105C92.9737 6.10039 92.8902 6.31861 92.7212 6.48179C92.5522 6.64496 92.2519 6.72753 91.8205 6.72753H87.5379C87.4484 6.48572 87.3848 6.28912 87.349 6.13774C87.3132 5.98636 87.2953 5.85268 87.2953 5.73669C87.2953 5.62069 87.3172 5.50667 87.3629 5.38281C87.4086 5.25896 87.4881 5.12724 87.6015 4.98765L89.373 2.74252L89.377 2.73859Z" fill="#1C1C1C"/>
<path d="M47.6976 13.866H75.5944" stroke="#1C1C1C" stroke-miterlimit="10" stroke-linecap="round"/>
<path d="M81.7601 3.82577C81.8794 3.72944 82.0126 3.63114 82.1617 3.53087C82.3108 3.43061 82.44 3.34411 82.5514 3.27137L82.5355 3.23205C82.44 3.22025 82.3347 3.20452 82.2173 3.18683C82.1 3.16914 81.9827 3.14948 81.8674 3.12785C81.7521 3.10622 81.6447 3.0846 81.5493 3.06297L80.921 2.91749C80.921 2.86048 80.925 2.8015 80.931 2.74252C80.9369 2.68354 80.9489 2.62456 80.9608 2.57148C80.9807 2.49088 81.0045 2.41027 81.0363 2.3336C81.0662 2.25496 81.1 2.18025 81.1357 2.10751L83.8278 2.73073C83.8457 2.87621 83.8557 3.00006 83.8596 3.10033C83.8636 3.20059 83.8557 3.28906 83.8378 3.3677C83.8258 3.41881 83.804 3.47386 83.7702 3.52891C83.7383 3.58395 83.6966 3.6331 83.6469 3.67242L82.3585 4.68883C82.2452 4.7773 82.1219 4.86773 81.9907 4.96406C81.8595 5.0604 81.7322 5.1469 81.6109 5.22161L81.6268 5.26092C81.7441 5.27469 81.8555 5.29041 81.9609 5.30811C82.0682 5.3258 82.1676 5.34546 82.2651 5.36709L82.5474 5.43196C82.6746 5.46145 82.8039 5.48308 82.9391 5.49684C83.0743 5.5106 83.1975 5.50667 83.3129 5.48504C83.3526 5.67574 83.3566 5.83499 83.3268 5.96474C83.293 6.11219 83.2174 6.22032 83.1041 6.28716C82.9908 6.354 82.8178 6.36187 82.5812 6.30878L80.245 5.76814C80.2271 5.62463 80.2192 5.50864 80.2192 5.42213C80.2192 5.33563 80.2271 5.26092 80.241 5.19605C80.255 5.1351 80.2828 5.07416 80.3246 5.01125C80.3643 4.9503 80.426 4.88739 80.5055 4.82645L81.7601 3.82577Z" fill="#1C1C1C"/>
<path d="M77.5031 3.80022C77.5787 3.73731 77.6662 3.6744 77.7616 3.60952C77.857 3.54465 77.9406 3.4896 78.0121 3.44242L78.0022 3.41686C77.9406 3.409 77.873 3.39917 77.7974 3.38737C77.7218 3.37557 77.6463 3.36378 77.5727 3.35002C77.4972 3.33626 77.4296 3.32249 77.3679 3.30677L76.9643 3.2124C76.9643 3.17505 76.9663 3.13769 76.9723 3.09837C76.9763 3.05905 76.9842 3.02367 76.9922 2.98828C77.0041 2.9352 77.02 2.88408 77.0399 2.83493C77.0598 2.78382 77.0816 2.73664 77.1055 2.68945L78.8372 3.09051C78.8492 3.18488 78.8551 3.26351 78.8571 3.32839C78.8591 3.39327 78.8551 3.45028 78.8432 3.5014C78.8353 3.53482 78.8213 3.56824 78.7995 3.60559C78.7796 3.64098 78.7517 3.67244 78.7199 3.69799L77.8908 4.35266C77.8173 4.40967 77.7378 4.46865 77.6542 4.5296C77.5688 4.59251 77.4872 4.64755 77.4097 4.69474L77.4196 4.72029C77.4952 4.73012 77.5668 4.73995 77.6344 4.74978C77.704 4.75961 77.7676 4.77338 77.8292 4.78714L78.0121 4.82842C78.0936 4.84808 78.1772 4.86184 78.2646 4.86971C78.3521 4.87954 78.4316 4.87561 78.5052 4.86184C78.5311 4.98373 78.533 5.08793 78.5132 5.1705C78.4913 5.26487 78.4436 5.33368 78.37 5.37889C78.2964 5.42214 78.1851 5.42804 78.034 5.39265L76.5309 5.04468C76.519 4.95228 76.513 4.87757 76.513 4.82252C76.513 4.76748 76.517 4.71833 76.5269 4.67704C76.5369 4.63772 76.5528 4.5984 76.5806 4.55909C76.6084 4.51977 76.6462 4.48045 76.6979 4.43916L77.5051 3.79433L77.5031 3.80022Z" fill="#1C1C1C"/>
<path d="M74.4393 4.21699C74.4731 4.18947 74.5129 4.15998 74.5547 4.13246C74.5984 4.10297 74.6342 4.07938 74.666 4.05775L74.662 4.04596C74.6342 4.04202 74.6044 4.03809 74.5706 4.03219C74.5368 4.0263 74.503 4.0204 74.4692 4.0145C74.4354 4.0086 74.4055 4.0027 74.3777 3.99484L74.1968 3.95355C74.1968 3.93783 74.1968 3.92013 74.2008 3.90244C74.2027 3.88475 74.2067 3.86902 74.2087 3.85329C74.2147 3.8297 74.2206 3.80611 74.2306 3.78448C74.2385 3.76089 74.2485 3.74123 74.2604 3.7196L75.0378 3.89851C75.0438 3.93979 75.0458 3.97715 75.0458 4.00467C75.0458 4.03416 75.0458 4.05972 75.0398 4.08134C75.0358 4.09707 75.0299 4.11083 75.0199 4.12853C75.01 4.14425 74.998 4.15802 74.9841 4.16981L74.6123 4.46274C74.5785 4.4883 74.5447 4.51386 74.5069 4.54138C74.4692 4.5689 74.4314 4.59446 74.3976 4.61609L74.4016 4.62788C74.4354 4.63181 74.4672 4.63575 74.499 4.64164C74.5308 4.64558 74.5586 4.65147 74.5865 4.65934L74.668 4.679C74.7038 4.68686 74.7416 4.69276 74.7813 4.69866C74.8211 4.70455 74.8569 4.70259 74.8887 4.69472C74.9006 4.74977 74.9006 4.79499 74.8927 4.83234C74.8827 4.87559 74.8608 4.90508 74.829 4.92474C74.7952 4.9444 74.7455 4.94637 74.6779 4.93064L74.0039 4.77533C73.998 4.73404 73.996 4.70062 73.996 4.67506C73.996 4.64951 73.998 4.62788 74.0019 4.61019C74.0059 4.59249 74.0139 4.5748 74.0258 4.55711C74.0377 4.53941 74.0556 4.52172 74.0775 4.50403L74.4393 4.21503V4.21699Z" fill="#1C1C1C"/>
<path d="M7.28089 34.89C6.58302 35.004 5.79568 35.063 4.91688 35.063C4.03809 35.063 3.27262 35.006 2.55288 34.89V24.3505C2.55288 23.8275 2.44353 23.3989 2.22681 23.0647C2.0101 22.7305 1.6204 22.5634 1.06171 22.5634H0.618336C0.481148 22.0503 0.41156 21.5234 0.41156 20.9788C0.41156 20.7174 0.427466 20.4382 0.459278 20.1394C0.491089 19.8405 0.544771 19.5574 0.618336 19.2842C1.08358 19.2311 1.56274 19.1918 2.05384 19.1662C2.54493 19.1407 2.9545 19.1269 3.28256 19.1269H3.94862C4.9646 19.1269 5.77182 19.4533 6.37624 20.1079C6.97868 20.7626 7.28089 21.6433 7.28089 22.7502V34.89ZM1.5866 14.8785C1.5866 14.5855 1.61245 14.3024 1.66613 14.0272C1.78145 13.4276 2.24868 12.9538 2.84714 12.8063C2.88889 12.7965 2.93263 12.7867 2.97439 12.7768C3.39191 12.6825 3.80745 12.6353 4.21902 12.6353C4.63058 12.6353 5.04214 12.6825 5.47955 12.7768C5.50739 12.7827 5.53721 12.7886 5.56306 12.7945C6.15754 12.9302 6.63471 13.3902 6.75401 13.982C6.75401 13.9859 6.75401 13.9879 6.75401 13.9918C6.81763 14.3103 6.84944 14.6071 6.84944 14.8785C6.84944 15.1714 6.82161 15.4604 6.76594 15.7415C6.64664 16.3549 6.1635 16.8425 5.54516 16.9722C5.52329 16.9761 5.49943 16.982 5.47558 16.986C5.03618 17.0744 4.61666 17.1197 4.21504 17.1197C3.81342 17.1197 3.37998 17.0744 2.94655 16.986C2.94257 16.986 2.9386 16.986 2.93263 16.984C2.28447 16.8503 1.7735 16.3352 1.6542 15.6924C1.6045 15.425 1.58064 15.1537 1.58064 14.8765L1.5866 14.8785Z" fill="white"/>
<path d="M10.7385 28.3355C10.653 28.0209 10.5973 27.6847 10.5714 27.323C10.5456 26.9613 10.5317 26.6723 10.5317 26.4521C10.5317 26.2319 10.5456 25.9429 10.5714 25.5812C10.5973 25.2214 10.653 24.8832 10.7385 24.5687H19.5105C19.594 24.8832 19.6497 25.2194 19.6775 25.5812C19.7034 25.9429 19.7173 26.2319 19.7173 26.4521C19.7173 26.6723 19.7034 26.9613 19.6775 27.323C19.6517 27.6847 19.596 28.0209 19.5105 28.3355H10.7385Z" fill="white"/>
<path d="M21.6995 33.8088C21.7214 33.2956 21.8606 32.7294 22.119 32.1062C22.3775 31.485 22.6877 30.9955 23.0475 30.6396C23.7355 30.9955 24.4532 31.3041 25.2048 31.5656C25.9563 31.8271 26.7019 31.9568 27.4415 31.9568C28.0857 31.9568 28.5788 31.8428 28.9168 31.6108C29.2548 31.3808 29.4238 31.0879 29.4238 30.732C29.4238 30.4076 29.3045 30.1226 29.0679 29.8768C28.8313 29.6311 28.4456 29.4148 27.9187 29.2261L26.1412 28.5832C25.4016 28.3119 24.7296 27.9718 24.1272 27.5629C23.5247 27.1559 23.0456 26.6526 22.6917 26.0569C22.3377 25.4613 22.1608 24.7456 22.1608 23.9081C22.1608 22.8622 22.4113 21.9579 22.9143 21.1951C23.4174 20.4323 24.1252 19.8406 25.0398 19.4238C25.9543 19.005 27.02 18.7966 28.2368 18.7966C29.2091 18.7966 30.241 18.9303 31.3305 19.1957C32.4201 19.4631 33.3028 19.7639 33.9788 20.0981C34.0107 20.6427 33.8973 21.2482 33.6369 21.9166C33.3784 22.585 33.0583 23.0608 32.6766 23.3439C32.0324 23.0608 31.3246 22.8013 30.5591 22.5595C29.7916 22.3196 29.0341 22.1978 28.2826 22.1978C27.8173 22.1978 27.4574 22.3059 27.203 22.5202C26.9485 22.7345 26.8212 22.9979 26.8212 23.3125C26.8212 23.6054 26.9266 23.8511 27.1393 24.0497C27.3501 24.2483 27.6881 24.4311 28.1553 24.5982L30.1058 25.304C31.3106 25.7227 32.3127 26.3282 33.112 27.1225C33.9093 27.9168 34.3089 28.9725 34.3089 30.2916C34.3089 31.8389 33.7084 33.0676 32.5095 33.9778C31.3106 34.8881 29.6525 35.3422 27.537 35.3422C26.4156 35.3422 25.3479 35.1908 24.3339 34.8881C23.3179 34.5853 22.4411 34.2236 21.7015 33.8048L21.6995 33.8088Z" fill="white"/>
<path d="M43.8902 31.4712C44.1447 32.1711 44.2719 32.9142 44.2719 33.6987C44.2719 33.8658 44.264 34.0447 44.2481 34.2314C44.2322 34.4202 44.2023 34.5932 44.1606 34.7485C43.7053 34.8212 43.1844 34.89 42.5978 34.9529C42.0113 35.0159 41.4268 35.0473 40.8442 35.0473C39.4704 35.0473 38.4862 34.7052 37.8937 34.0211C37.3012 33.3369 37.0049 32.2773 37.0049 30.8441V12.0239L37.2276 11.8037H39.0508C39.9913 11.8037 40.6553 12.016 41.0411 12.4387C41.4268 12.8614 41.6196 13.5966 41.6196 14.6425V29.9967C41.6196 30.4784 41.725 30.8441 41.9358 31.0957C42.1465 31.3454 42.4964 31.4712 42.9836 31.4712H43.8882H43.8902Z" fill="white"/>
<path d="M48.9483 28.5852V25.3551H55.1814V24.9953C55.1814 24.4724 55.1078 23.9966 54.9587 23.568C54.8096 23.1394 54.573 22.7954 54.2449 22.5319C53.9168 22.2705 53.4834 22.1407 52.9446 22.1407C52.1294 22.1407 51.5509 22.473 51.2089 23.1375C50.8649 23.802 50.6939 24.8026 50.6939 26.1415V27.553C50.6939 28.306 50.7635 29.0019 50.9007 29.6389C51.0379 30.2778 51.3202 30.791 51.7497 31.1842C52.1771 31.5774 52.8253 31.772 53.6922 31.772C54.4119 31.772 55.1217 31.6757 55.8255 31.481C56.5294 31.2884 57.2034 31.0544 57.8476 30.7831C58.1975 31.1291 58.4759 31.5616 58.6886 32.0846C58.8993 32.6075 59.0425 33.099 59.1161 33.559C58.3228 34.1351 57.3744 34.5755 56.2689 34.8841C55.1635 35.1928 54.0501 35.3461 52.9307 35.3461C51.5568 35.3461 50.4156 35.1181 49.5129 34.6639C48.6083 34.2098 47.8945 33.5944 47.3716 32.8218C46.8487 32.0472 46.4789 31.1743 46.2622 30.2031C46.0454 29.23 45.9361 28.2214 45.9361 27.1756C45.9361 25.5969 46.1787 24.1775 46.6658 22.9173C47.1529 21.6571 47.9104 20.6564 48.9423 19.9133C49.9742 19.1701 51.3143 18.8005 52.9625 18.8005C54.3582 18.8005 55.5452 19.0935 56.5234 19.6793C57.5016 20.2652 58.2492 21.0594 58.7681 22.064C59.287 23.0687 59.5455 24.203 59.5455 25.4671C59.5455 26.1375 59.5157 26.6959 59.458 27.1461C59.4004 27.5963 59.297 28.0779 59.1479 28.5891H48.9483V28.5852Z" fill="white"/>
<path d="M64.7149 28.5852V25.3551H70.948V24.9953C70.948 24.4724 70.8744 23.9966 70.7253 23.568C70.5762 23.1394 70.3396 22.7954 70.0115 22.5319C69.6834 22.2705 69.25 22.1407 68.7112 22.1407C67.896 22.1407 67.3175 22.473 66.9755 23.1375C66.6315 23.802 66.4605 24.8026 66.4605 26.1415V27.553C66.4605 28.306 66.5301 29.0019 66.6673 29.6389C66.8045 30.2778 67.0868 30.791 67.5163 31.1842C67.9437 31.5774 68.5919 31.772 69.4588 31.772C70.1785 31.772 70.8883 31.6757 71.5921 31.481C72.296 31.2884 72.97 31.0544 73.6142 30.7831C73.9641 31.1291 74.2425 31.5616 74.4552 32.0846C74.6659 32.6075 74.8091 33.099 74.8827 33.559C74.0894 34.1351 73.141 34.5755 72.0355 34.8841C70.9301 35.1928 69.8167 35.3461 68.6973 35.3461C67.3234 35.3461 66.1822 35.1181 65.2795 34.6639C64.3749 34.2098 63.6611 33.5944 63.1382 32.8218C62.6153 32.0472 62.2455 31.1743 62.0288 30.2031C61.8121 29.23 61.7027 28.2214 61.7027 27.1756C61.7027 25.5969 61.9453 24.1775 62.4324 22.9173C62.9195 21.6571 63.677 20.6564 64.7089 19.9133C65.7408 19.1701 67.0809 18.8005 68.7291 18.8005C70.1248 18.8005 71.3118 19.0935 72.29 19.6793C73.2682 20.2652 74.0158 21.0594 74.5347 22.064C75.0537 23.0687 75.3121 24.203 75.3121 25.4671C75.3121 26.1375 75.2823 26.6959 75.2246 27.1461C75.167 27.5963 75.0636 28.0779 74.9145 28.5891H64.7149V28.5852Z" fill="white"/>
<path d="M79.9109 19.0502C80.8831 19.0502 81.6526 19.4002 82.2192 20.1C82.7839 20.7999 83.0682 21.7574 83.0682 22.9704V38.8278C83.0682 39.8737 82.8734 40.607 82.4817 41.0317C82.09 41.4563 81.4239 41.6667 80.4835 41.6667H80.0719C79.1295 41.6667 78.199 41.4681 77.3421 41.0828C76.4136 40.3593 74.9165 37.084 77.3182 38.2341C77.865 38.4052 78.4217 38.0021 78.4217 37.4359V19.2684L78.6444 19.0482H79.9129L79.9109 19.0502ZM92.4268 26.8925C92.4268 28.6913 92.1385 30.2071 91.5619 31.4417C90.9853 32.6763 90.2159 33.6082 89.2536 34.2412C88.2913 34.8743 87.2395 35.1908 86.0963 35.1908C84.953 35.1908 84.0404 34.9687 83.1935 34.5243C82.3485 34.08 81.5651 33.6377 80.8454 33.1993L81.591 29.8591C82.2033 30.3506 82.8356 30.7792 83.4857 31.1448C84.1359 31.5105 84.7363 31.6934 85.2851 31.6934C85.804 31.6934 86.2315 31.5007 86.5695 31.1134C86.9075 30.7261 87.158 30.1717 87.323 29.4502C87.488 28.7287 87.5696 27.8656 87.5696 26.863C87.5696 25.8603 87.4801 25.0287 87.2992 24.4016C87.1182 23.7744 86.8796 23.3124 86.5774 23.0136C86.2752 22.7148 85.9293 22.5673 85.5376 22.5673C85.1777 22.5673 84.7622 22.6715 84.293 22.8799C83.8217 23.0883 83.3704 23.4815 82.937 24.0556C82.5036 24.6316 82.1437 25.4612 81.8594 26.5484L80.8116 23.8197C80.9269 22.9939 81.2609 22.1958 81.8116 21.4271C82.3624 20.6584 83.0642 20.0293 83.9212 19.5378C84.7781 19.0463 85.7185 18.8005 86.7444 18.8005C88.0229 18.8005 89.0846 19.1465 89.9256 19.8366C90.7666 20.5267 91.3929 21.4782 91.8045 22.6912C92.218 23.9042 92.4228 25.3059 92.4228 26.8944L92.4268 26.8925Z" fill="white"/>
<path d="M6.86734 34.426C6.16947 34.54 5.38213 34.599 4.50334 34.599C3.62454 34.599 2.85907 34.542 2.13933 34.426V23.8865C2.13933 23.3635 2.02998 22.935 1.81326 22.6007C1.59655 22.2665 1.20685 22.0994 0.648162 22.0994H0.206776C0.069588 21.5863 0 21.0594 0 20.5148C0 20.2534 0.0159058 19.9742 0.0477175 19.6754C0.0795291 19.3766 0.133211 19.0935 0.206776 18.8202C0.672021 18.7671 1.15118 18.7278 1.64228 18.7022C2.13337 18.6767 2.54294 18.6629 2.871 18.6629H3.53706C4.55304 18.6629 5.36026 18.9893 5.96468 19.6439C6.56712 20.2986 6.86933 21.1793 6.86933 22.2862V34.426H6.86734ZM1.17305 14.4145C1.17305 14.1215 1.1989 13.8384 1.25258 13.5632C1.3679 12.9636 1.83513 12.4898 2.43359 12.3423C2.47534 12.3325 2.51908 12.3227 2.56084 12.3128C2.97837 12.2185 3.3939 12.1713 3.80547 12.1713C4.21703 12.1713 4.62859 12.2185 5.066 12.3128C5.09384 12.3187 5.12366 12.3246 5.14951 12.3305C5.74399 12.4662 6.22116 12.9262 6.34046 13.518C6.34046 13.5219 6.34046 13.5239 6.34046 13.5278C6.40408 13.8463 6.43589 14.1432 6.43589 14.4145C6.43589 14.7074 6.40806 14.9964 6.35239 15.2775C6.23309 15.8909 5.74995 16.3785 5.13162 16.5082C5.10974 16.5121 5.08589 16.518 5.06203 16.522C4.62263 16.6104 4.20311 16.6557 3.80149 16.6557C3.39987 16.6557 2.96644 16.6104 2.533 16.522C2.52903 16.522 2.52505 16.522 2.51908 16.52C1.87092 16.3863 1.35995 15.8712 1.24065 15.2284C1.19095 14.961 1.16709 14.6897 1.16709 14.4125L1.17305 14.4145Z" fill="#1C1C1C"/>
<path d="M10.3269 27.8715C10.2414 27.5569 10.1857 27.2208 10.1599 26.859C10.134 26.4973 10.1201 26.2083 10.1201 25.9881C10.1201 25.7679 10.134 25.4789 10.1599 25.1172C10.1857 24.7574 10.2414 24.4193 10.3269 24.1047H19.099C19.1825 24.4193 19.2381 24.7554 19.266 25.1172C19.2918 25.4789 19.3057 25.7679 19.3057 25.9881C19.3057 26.2083 19.2918 26.4973 19.266 26.859C19.2401 27.2208 19.1844 27.5569 19.099 27.8715H10.3269Z" fill="#1C1C1C"/>
<path d="M21.286 33.3447C21.3079 32.8316 21.4471 32.2654 21.7055 31.6422C21.964 31.021 22.2742 30.5314 22.634 30.1756C23.322 30.5314 24.0397 30.8401 24.7913 31.1016C25.5428 31.363 26.2884 31.4928 27.028 31.4928C27.6722 31.4928 28.1653 31.3788 28.5033 31.1468C28.8413 30.9168 29.0103 30.6238 29.0103 30.268C29.0103 29.9436 28.891 29.6585 28.6544 29.4128C28.4178 29.1671 28.0321 28.9508 27.5052 28.7621L25.7277 28.1192C24.9881 27.8479 24.3161 27.5078 23.7136 27.0989C23.1112 26.6919 22.632 26.1886 22.2781 25.5929C21.9242 24.9972 21.7473 24.2816 21.7473 23.4441C21.7473 22.3982 21.9978 21.4939 22.5008 20.7311C23.0038 19.9683 23.7117 19.3765 24.6262 18.9598C25.5408 18.541 26.6065 18.3326 27.8233 18.3326C28.7956 18.3326 29.8275 18.4663 30.917 18.7317C32.0066 18.9991 32.8893 19.2999 33.5653 19.6341C33.5971 20.1787 33.4838 20.7842 33.2234 21.4526C32.9649 22.121 32.6448 22.5968 32.263 22.8799C31.6189 22.5968 30.911 22.3373 30.1456 22.0955C29.3781 21.8556 28.6206 21.7337 27.869 21.7337C27.4038 21.7337 27.0439 21.8419 26.7894 22.0562C26.5349 22.2704 26.4077 22.5339 26.4077 22.8484C26.4077 23.1414 26.5131 23.3871 26.7258 23.5857C26.9366 23.7842 27.2746 23.9671 27.7418 24.1342L29.6923 24.84C30.8971 25.2587 31.8992 25.8642 32.6985 26.6585C33.4957 27.4527 33.8954 28.5085 33.8954 29.8276C33.8954 31.3748 33.2949 32.6036 32.096 33.5138C30.8971 34.424 29.2389 34.8782 27.1235 34.8782C26.0021 34.8782 24.9344 34.7268 23.9204 34.424C22.9044 34.1213 22.0276 33.7595 21.288 33.3408L21.286 33.3447Z" fill="#1C1C1C"/>
<path d="M43.4766 31.0072C43.7311 31.7071 43.8584 32.4502 43.8584 33.2347C43.8584 33.4018 43.8504 33.5807 43.8345 33.7674C43.8186 33.9562 43.7888 34.1292 43.747 34.2845C43.2917 34.3572 42.7708 34.426 42.1843 34.489C41.5977 34.5519 41.0132 34.5833 40.4306 34.5833C39.0568 34.5833 38.0726 34.2412 37.4801 33.5571C36.8876 32.8729 36.5914 31.8133 36.5914 30.3801V11.5599L36.8141 11.3397H38.6373C39.5777 11.3397 40.2418 11.552 40.6275 11.9747C41.0132 12.3974 41.2061 13.1327 41.2061 14.1785V29.5327C41.2061 30.0144 41.3114 30.3801 41.5222 30.6317C41.7329 30.8814 42.0829 31.0072 42.57 31.0072H43.4746H43.4766Z" fill="#1C1C1C"/>
<path d="M48.5367 28.1212V24.8911H54.7698V24.5313C54.7698 24.0084 54.6962 23.5326 54.5471 23.104C54.398 22.6754 54.1614 22.3314 53.8333 22.068C53.5053 21.8065 53.0719 21.6767 52.533 21.6767C51.7179 21.6767 51.1393 22.009 50.7973 22.6735C50.4534 23.338 50.2824 24.3386 50.2824 25.6775V27.089C50.2824 27.842 50.352 28.5379 50.4891 29.1749C50.6263 29.8139 50.9087 30.327 51.3381 30.7202C51.7656 31.1134 52.4137 31.308 53.2806 31.308C54.0004 31.308 54.7101 31.2117 55.414 31.017C56.1178 30.8244 56.7918 30.5904 57.436 30.3191C57.7859 30.6651 58.0643 31.0976 58.277 31.6206C58.4878 32.1435 58.6309 32.635 58.7045 33.0951C57.9112 33.6711 56.9628 34.1115 55.8574 34.4201C54.7519 34.7288 53.6385 34.8821 52.5191 34.8821C51.1453 34.8821 50.004 34.6541 49.1014 34.1999C48.1987 33.7458 47.4829 33.1304 46.96 32.3578C46.4371 31.5832 46.0673 30.7103 45.8506 29.7392C45.6339 28.766 45.5245 27.7575 45.5245 26.7116C45.5245 25.1329 45.7671 23.7135 46.2542 22.4533C46.7413 21.1931 47.4988 20.1924 48.5307 19.4493C49.5626 18.7062 50.9027 18.3365 52.5509 18.3365C53.9467 18.3365 55.1336 18.6295 56.1119 19.2153C57.0901 19.8012 57.8376 20.5954 58.3566 21.6001C58.8755 22.6047 59.134 23.739 59.134 25.0031C59.134 25.6735 59.1041 26.2319 59.0465 26.6821C58.9888 27.1323 58.8854 27.6139 58.7363 28.1251H48.5367V28.1212Z" fill="#1C1C1C"/>
<path d="M64.3033 28.1212V24.8911H70.5364V24.5313C70.5364 24.0084 70.4628 23.5326 70.3137 23.104C70.1646 22.6754 69.928 22.3314 69.5999 22.068C69.2719 21.8065 68.8385 21.6767 68.2996 21.6767C67.4845 21.6767 66.9059 22.009 66.5639 22.6735C66.22 23.338 66.049 24.3386 66.049 25.6775V27.089C66.049 27.842 66.1186 28.5379 66.2557 29.1749C66.3929 29.8139 66.6753 30.327 67.1047 30.7202C67.5322 31.1134 68.1804 31.308 69.0472 31.308C69.767 31.308 70.4768 31.2117 71.1806 31.017C71.8844 30.8244 72.5584 30.5904 73.2026 30.3191C73.5525 30.6651 73.8309 31.0976 74.0436 31.6206C74.2544 32.1435 74.3975 32.635 74.4711 33.0951C73.6778 33.6711 72.7294 34.1115 71.624 34.4201C70.5185 34.7288 69.4051 34.8821 68.2857 34.8821C66.9119 34.8821 65.7706 34.6541 64.868 34.1999C63.9653 33.7458 63.2495 33.1304 62.7266 32.3578C62.2037 31.5832 61.8339 30.7103 61.6172 29.7392C61.4005 28.766 61.2911 27.7575 61.2911 26.7116C61.2911 25.1329 61.5337 23.7135 62.0208 22.4533C62.5079 21.1931 63.2655 20.1924 64.2973 19.4493C65.3292 18.7062 66.6693 18.3365 68.3175 18.3365C69.7133 18.3365 70.9002 18.6295 71.8785 19.2153C72.8567 19.8012 73.6042 20.5954 74.1232 21.6001C74.6421 22.6047 74.9006 23.739 74.9006 25.0031C74.9006 25.6735 74.8707 26.2319 74.8131 26.6821C74.7554 27.1323 74.652 27.6139 74.5029 28.1251H64.3033V28.1212Z" fill="#1C1C1C"/>
<path d="M79.4973 18.5862C80.4696 18.5862 81.239 18.9362 81.8057 19.6361C82.3703 20.3359 82.6546 21.2934 82.6546 22.5064V38.3639C82.6546 39.4097 82.4598 40.1431 82.0681 40.5677C81.6764 40.9924 81.0104 41.2027 80.0699 41.2027H79.6584C78.7159 41.2027 77.7855 41.0041 76.9285 40.6188C76 39.8953 74.5029 36.62 76.9047 37.7701C77.4514 37.9412 78.0081 37.5381 78.0081 36.9719V18.8044L78.2308 18.5843H79.4993L79.4973 18.5862ZM92.0132 26.4285C92.0132 28.2273 91.7249 29.7431 91.1483 30.9777C90.5718 32.2123 89.8023 33.1442 88.84 33.7773C87.8777 34.4103 86.8259 34.7268 85.6827 34.7268C84.5395 34.7268 83.6269 34.5047 82.7799 34.0604C81.9349 33.616 81.1515 33.1737 80.4318 32.7353L81.1774 29.3951C81.7898 29.8866 82.422 30.3152 83.0722 30.6809C83.7223 31.0465 84.3228 31.2294 84.8715 31.2294C85.3904 31.2294 85.8179 31.0367 86.1559 30.6494C86.4939 30.2621 86.7444 29.7077 86.9094 28.9862C87.0725 28.2647 87.156 27.4016 87.156 26.399C87.156 25.3963 87.0665 24.5647 86.8856 23.9376C86.7047 23.3104 86.4661 22.8484 86.1639 22.5496C85.8616 22.2508 85.5157 22.1033 85.124 22.1033C84.7641 22.1033 84.3486 22.2075 83.8794 22.4159C83.4082 22.6243 82.9568 23.0175 82.5234 23.5916C82.09 24.1676 81.7301 24.9972 81.4458 26.0844L80.398 23.3557C80.5133 22.53 80.8473 21.7318 81.3981 20.9631C81.9488 20.1944 82.6507 19.5653 83.5076 19.0738C84.3645 18.5823 85.3049 18.3365 86.3309 18.3365C87.6093 18.3365 88.671 18.6826 89.512 19.3726C90.353 20.0627 90.9793 21.0142 91.3909 22.2272C91.8045 23.4402 92.0092 24.8419 92.0092 26.4304L92.0132 26.4285Z" fill="#1C1C1C"/>
<path d="M55.8136 8.54211C61.5457 8.55194 78.1076 8.60503 86.1639 9.07293C87.4205 9.14567 89.2198 9.4327 89.5419 9.86717C89.689 10.0657 89.699 10.1719 89.6831 10.2328C89.2357 11.8843 80.3245 10.5474 80.0859 11.9727C79.9248 12.9439 84.0922 14.269 84.8914 14.5403C88.011 15.5999 93.2977 15.8437 99.7972 15.2244" stroke="white" stroke-width="2" stroke-miterlimit="10" stroke-linecap="round"/>
<path d="M55.3543 8.29245C61.0864 8.30228 77.6483 8.35536 85.7046 8.82326C86.9612 8.896 88.7605 9.18303 89.0826 9.61751C89.2297 9.81607 89.2397 9.92224 89.2238 9.98318C88.7764 11.6346 79.8652 10.2977 79.6266 11.7231C79.4655 12.6942 83.6329 14.0193 84.4321 14.2906C87.5517 15.3503 92.8384 15.594 99.3379 14.9748" stroke="#1C1C1C" stroke-miterlimit="10" stroke-linecap="round"/>
</g>
<defs>
<clipPath id="clip0_3_51">
<rect width="100" height="41.6667" fill="white"/>
</clipPath>
</defs>
</svg>
