<svg width="60" height="60" viewBox="0 0 60 60" fill="none" xmlns="http://www.w3.org/2000/svg">
<g clip-path="url(#clip0_58_1035)">
<path d="M30.2242 29.9981C30.2242 22.1332 33.8665 15.1858 41.3603 8.76345C42.5442 7.75097 43.0706 6.2285 42.7759 4.69352C42.4787 3.15855 41.4208 1.94108 39.9447 1.43609C35.8162 0.0236112 30.2443 -0.383881 25.3954 0.378605C12.156 2.46607 1.54134 13.5784 0.163492 26.8056C-1.49143 42.6853 9.5943 57.0976 25.3954 59.6175C27.0478 59.88 28.7229 59.9925 30.4307 60C33.8615 60 37.2343 59.49 39.9447 58.56C41.4182 58.055 42.4762 56.8376 42.7759 55.3026C43.0732 53.7676 42.5442 52.2451 41.3603 51.2327C33.8665 44.8103 30.2242 37.8654 30.2242 29.9981ZM39.1235 56.1951C36.6676 57.0351 33.5895 57.4975 30.4257 57.4975C28.864 57.4851 27.3148 57.3901 25.7934 57.1476C11.3097 54.8401 1.15091 41.6228 2.66981 27.0631C3.93178 14.9433 13.6573 4.75852 25.7909 2.84856C27.2947 2.61106 28.8715 2.49607 30.4433 2.49607C33.5416 2.49607 36.6298 2.94356 39.1235 3.79854C39.7356 4.00854 40.1764 4.51853 40.2998 5.16352C40.4258 5.811 40.2066 6.44849 39.7155 6.87099C31.6348 13.7959 27.7053 21.3607 27.7053 29.9956C27.7053 38.6304 31.6348 46.1953 39.7155 53.1201C40.2066 53.5426 40.4258 54.1801 40.2998 54.8276C40.1764 55.4726 39.7356 55.9851 39.1235 56.1951Z" fill="#FEA903"/>
<path d="M42.8572 40.4082C44.2097 40.4082 45.3062 39.3118 45.3062 37.9592C45.3062 36.6067 44.2097 35.5103 42.8572 35.5103C41.5046 35.5103 40.4082 36.6067 40.4082 37.9592C40.4082 39.3118 41.5046 40.4082 42.8572 40.4082Z" fill="#FEA903"/>
<path d="M57.5505 50.2041C58.9031 50.2041 59.9995 49.1077 59.9995 47.7551C59.9995 46.4026 58.9031 45.3062 57.5505 45.3062C56.198 45.3062 55.1016 46.4026 55.1016 47.7551C55.1016 49.1077 56.198 50.2041 57.5505 50.2041Z" fill="#FEA903"/>
<path d="M59.1622 21.9411C59.6618 21.7734 59.9998 21.3022 59.9998 20.7719C59.9998 20.2415 59.6618 19.7704 59.1622 19.6027L56.0692 18.5642L55.0382 15.4487C54.7052 14.4422 53.0497 14.4422 52.7166 15.4487L51.6905 18.5494L48.6147 19.5188C48.1126 19.6767 47.7649 20.1404 47.7551 20.6732C47.7453 21.206 48.0735 21.6821 48.5706 21.8573L51.6807 22.9648L52.7166 26.0951C52.8832 26.5983 53.3509 26.9387 53.8774 26.9387C54.404 26.9387 54.8717 26.5983 55.0382 26.0951L56.0692 22.9796L59.1622 21.9411Z" fill="#FEA903"/>
</g>
<defs>
<clipPath id="clip0_58_1035">
<rect width="60" height="60" fill="white"/>
</clipPath>
</defs>
</svg>
