<svg width="29" height="29" viewBox="0 0 29 29" fill="none" xmlns="http://www.w3.org/2000/svg">
<path d="M14.5003 19.9073C16.4941 18.2962 17.9995 16.7455 19.0165 15.2552C20.0335 13.7649 20.542 12.3653 20.542 11.0562C20.542 9.92846 20.3356 8.96683 19.9227 8.17134C19.5099 7.37586 19.0014 6.73141 18.3972 6.23801C17.793 5.74461 17.1385 5.38714 16.4337 5.16561C15.7288 4.94409 15.0844 4.83332 14.5003 4.83332C13.9163 4.83332 13.2719 4.94409 12.567 5.16561C11.8621 5.38714 11.2076 5.74461 10.6035 6.23801C9.99928 6.73141 9.49078 7.37586 9.07793 8.17134C8.66508 8.96683 8.45866 9.92846 8.45866 11.0562C8.45866 12.3653 8.96717 13.7649 9.98418 15.2552C11.0012 16.7455 12.5066 18.2962 14.5003 19.9073ZM14.5003 22.9583C11.6607 20.8639 9.54112 18.8299 8.14147 16.8562C6.74182 14.8826 6.04199 12.9493 6.04199 11.0562C6.04199 9.62638 6.29876 8.37273 6.8123 7.2953C7.32585 6.21787 7.98539 5.31666 8.79095 4.59166C9.59651 3.86666 10.5028 3.32291 11.5097 2.96041C12.5166 2.59791 13.5135 2.41666 14.5003 2.41666C15.4871 2.41666 16.484 2.59791 17.491 2.96041C18.4979 3.32291 19.4041 3.86666 20.2097 4.59166C21.0153 5.31666 21.6748 6.21787 22.1883 7.2953C22.7019 8.37273 22.9587 9.62638 22.9587 11.0562C22.9587 12.9493 22.2588 14.8826 20.8592 16.8562C19.4595 18.8299 17.3399 20.8639 14.5003 22.9583ZM14.5003 13.2917C15.1649 13.2917 15.7338 13.055 16.2071 12.5818C16.6804 12.1085 16.917 11.5396 16.917 10.875C16.917 10.2104 16.6804 9.64148 16.2071 9.16822C15.7338 8.69495 15.1649 8.45832 14.5003 8.45832C13.8357 8.45832 13.2668 8.69495 12.7936 9.16822C12.3203 9.64148 12.0837 10.2104 12.0837 10.875C12.0837 11.5396 12.3203 12.1085 12.7936 12.5818C13.2668 13.055 13.8357 13.2917 14.5003 13.2917ZM6.04199 26.5833V24.1667H22.9587V26.5833H6.04199Z" fill="#1C1C1C"/>
</svg>
