<?xml version="1.0" encoding="UTF-8"?>
<svg id="Layer_2" data-name="Layer 2" xmlns="http://www.w3.org/2000/svg" viewBox="0 0 453.12 226.85">
  <defs>
    <style>
      .cls-1 {
        fill: #fff;
      }

      .cls-2 {
        fill: #f2ab44;
      }

      .cls-3 {
        fill: #6ba1ac;
      }

      .cls-4 {
        fill: #9fd4cc;
      }

      .cls-5 {
        fill: #323742;
      }

      .cls-6 {
        fill: #c3e6e2;
      }

      .cls-7 {
        fill: #444b5a;
      }

      .cls-8 {
        stroke: #000;
        stroke-width: 2px;
      }

      .cls-8, .cls-9 {
        fill: #ee8d53;
        stroke-linecap: round;
        stroke-miterlimit: 10;
      }

      .cls-9 {
        stroke: #ee8d53;
        stroke-width: 6px;
      }

      .cls-10 {
        font-family: Montserrat-MediumItalic, Montserrat;
        font-size: 24px;
        font-style: italic;
        font-weight: 500;
      }
    </style>
  </defs>
  <g id="Layer_1-2" data-name="Layer 1">
    <g>
      <path class="cls-3" d="M185.08,203.37s39.19,41.12,166.87,14.54c15.22-3.17,30.78-4.44,46.32-3.96,21.78,.67,34.32,1.46,47.24-5.97-6.85-9.76-28.83-14.18-37.62-14.76-3.29-.22-6.59-.04-9.84,.45-11.13,1.67-46.04,5.72-87.9-1.5-50.95-8.78-96.76-16.18-125.07,11.19Z"/>
      <path class="cls-1" d="M445.51,207.98s18.88-14.25-2.83-26.86c-4.22-2.45-8.81-4.4-13.64-5.09-32.52-4.62-44.78-4.58-44.78-4.58l-138.97-8.75s-85.44-5.15-60.22,40.66c21.26-21.26,82.01-16.52,104.35-13.95,4.27,.49,8.48,1.36,12.62,2.55,9.69,2.79,37.5,8.23,98.88,4.07,7.4-.5,14.86-.11,22.12,1.42,17.19,3.62,22.47,10.52,22.47,10.52Z"/>
    </g>
    <g>
      <ellipse class="cls-6" cx="86.57" cy="209.64" rx="51.37" ry="14.95"/>
      <path class="cls-2" d="M43.06,192.13s-8.49,8.99-3.5,12.82c1.66,1.5,4.99,1.33,4.99,1.33,0,0,5.99,11.49,14.48,7.16,1.5,2.83,9.65,9.94,15.98,.97s3.66-13.63,3.66-13.63c0,0-12.65-3-35.62-8.66Z"/>
      <path class="cls-2" d="M127.85,192.13s8.49,8.99,3.5,12.82c-1.66,1.5-4.99,1.33-4.99,1.33,0,0-5.99,11.49-14.48,7.16-1.5,2.83-9.65,9.94-15.98,.97s-3.66-13.63-3.66-13.63c0,0,12.65-3,35.62-8.66Z"/>
      <path class="cls-5" d="M19.67,115.07v44.3s.36,9.54,3.38,11.23c-.72,2.29-2.05,9.9-12.19,6.28,0,0-13.16,7-10.5-12.19s13.88-48.04,19.31-49.61Z"/>
      <path class="cls-7" d="M149.9,88.42c0-39.18-29.15-70.95-65.12-70.95S21.66,47.13,19.77,84.47c0,.03,0,.06,0,.09-.88,23.01-.1,63-.1,74.81,0,24.27,29.15,43.95,65.12,43.95s65.12-19.68,65.12-43.95V93.89c0-.6,0-1.19,0-1.78,0-1.22,0-2.45,0-3.68Z"/>
      <path class="cls-1" d="M32.99,147.47v-61.25c0-8.6,2.17-17.12,6.62-24.49,4.48-7.43,11.65-14.42,22.72-14.11,23.3,.65,22,14.45,22,14.45,0,0,2.16-14.69,24.59-14.46,11.22,.11,18.01,7.99,22,15.84,3.5,6.88,5.18,14.55,5.18,22.28v61.75c0,12.99-5.47,25.52-15.43,33.86-7.74,6.48-19.22,11.67-36.12,11.67s-28.38-5.19-36.12-11.67c-9.96-8.34-15.43-20.87-15.43-33.86Z"/>
      <g>
        <circle class="cls-7" cx="60.4" cy="78.3" r="4.28"/>
        <circle class="cls-7" cx="108.68" cy="78.3" r="4.28"/>
        <path class="cls-2" d="M71.54,93c4.22-3.29,14.61-9.29,25.96,.02,1.34,1.1,1.98,2.87,1.69,4.59-1.51,9.07-9.82,16.27-14.09,16.18s-13.81-8-15.38-15.96c-.36-1.81,.36-3.69,1.81-4.82Z"/>
      </g>
      <path class="cls-5" d="M149.75,115.12v39.01s3.49,18.63,25.33,10.77,24.02-10.04,24.02-10.04c0,0,6.7-4.08-2.62-8.44,2.18-3.2,4.8-13.83-11.79-10.77-15.14,5.33-17.61,6.55-17.61,6.55,0,0-10.63-28.09-17.32-27.08Z"/>
      <line class="cls-8" x1="275.69" y1="127.65" x2="269.94" y2="9.37"/>
      <line class="cls-9" x1="272.77" y1="3" x2="161.08" y2="177.99"/>
      <g>
        <rect class="cls-4" x="217.55" y="110.91" width="138.97" height="74.12" rx="13" ry="13" transform="translate(-28.52 79.33) rotate(-15)"/>
        <text class="cls-10" transform="translate(242.28 153.75) rotate(-15)"><tspan x="0" y="0">ERROR</tspan><tspan x="20.24" y="28.8">404</tspan></text>
      </g>
    </g>
  </g>
</svg>