<?xml version="1.0" encoding="iso-8859-1"?>
<!-- Generator: Adobe Illustrator 23.0.5, SVG Export Plug-In . SVG Version: 6.00 Build 0)  -->
<svg version="1.1" id="&#x421;&#x43B;&#x43E;&#x439;_1"
	 xmlns="http://www.w3.org/2000/svg" xmlns:xlink="http://www.w3.org/1999/xlink" x="0px" y="0px" viewBox="0 0 512 512"
	 style="enable-background:new 0 0 512 512;" xml:space="preserve">
<linearGradient id="SVGID_1_" gradientUnits="userSpaceOnUse" x1="1" y1="255.7495" x2="510.0796" y2="255.7495">
	<stop  offset="0" style="stop-color:#FDD430"/>
	<stop  offset="1" style="stop-color:#FBBF2C"/>
</linearGradient>
<path style="fill:url(#SVGID_1_);" d="M494.234,409.31l-142.85-142.924l147.188-147.387c17.584-17.583,17.589-46.048,0-63.635
	L456.15,12.94c-17.544-17.544-46.09-17.543-63.643,0.007L245.353,160.299L122.846,37.727c-0.006-0.006-0.012-0.011-0.018-0.016
	c-1.615-1.611-3.718-2.878-5.705-3.562L19.67,0.578C14.237-1.293,8.219,0.102,4.162,4.17C0.107,8.236-1.27,14.263,0.618,19.688
	l33.817,97.207c0.71,2.031,1.938,4.045,3.536,5.651c0.008,0.008,0.014,0.017,0.022,0.025l122.513,122.577L12.965,392.489
	c-17.586,17.584-17.588,46.048,0,63.635l42.423,42.424c17.535,17.535,46.081,17.552,63.629,0.007l147.52-147.323
	c21.479,21.491,119.707,119.797,142.844,142.919c0.001,0,0.002,0.001,0.003,0.002c23.444,23.446,61.396,23.451,84.848,0
	C517.623,470.762,517.623,432.7,494.234,409.31L494.234,409.31z M413.725,34.152c5.849-5.849,15.364-5.849,21.213,0l42.423,42.424
	c5.819,5.819,5.905,15.306-0.007,21.219l-20.776,20.804l-10.62-10.62c-5.857-5.857-15.354-5.858-21.212,0s-5.858,15.354,0,21.212
	l10.634,10.634l-21.198,21.227l-31.861-31.86c-5.857-5.858-15.354-5.858-21.212,0s-5.858,15.354,0,21.212l31.875,31.874
	l-21.198,21.227l-10.676-10.676c-5.857-5.858-15.354-5.858-21.212,0s-5.858,15.354,0,21.212l10.691,10.691l-20.414,20.441
	l-63.619-63.652L413.725,34.152z M39.098,38.998l45.563,15.696L54.908,84.448L39.098,38.998z M223.319,351.997l-10.69-10.69
	c-5.856-5.857-15.353-5.858-21.212,0c-5.858,5.858-5.858,15.354,0,21.212l10.675,10.676l-21.227,21.198l-31.873-31.873
	c-5.856-5.858-15.353-5.858-21.212,0c-5.858,5.857-5.858,15.354,0,21.212l31.859,31.859l-21.226,21.198l-10.634-10.633
	c-5.857-5.857-15.354-5.857-21.212,0c-5.858,5.858-5.857,15.354,0,21.212l10.619,10.618L97.81,477.337
	c-5.849,5.849-15.364,5.849-21.213,0l-42.422-42.423c-5.864-5.864-5.858-15.354-0.007-21.205L181.71,266.366l63.619,63.652
	L223.319,351.997z M69.81,111.969l42.423-42.424c183.163,183.377,134.769,134.84,265.357,265.496l-42.424,42.424L69.81,111.969z
	 M356.373,398.681l42.423-42.423l21.207,21.218L377.579,419.9L356.373,398.681z M473.019,472.942
	c-11.722,11.721-30.694,11.727-42.421,0.003l-31.812-31.829l42.424-42.424l31.81,31.826
	C484.715,442.215,484.715,461.246,473.019,472.942z"/>
</svg>
