<svg width="60" height="60" viewBox="0 0 60 60" fill="none" xmlns="http://www.w3.org/2000/svg">
<path d="M36.1834 0H10.7547C7.31775 0 4.52832 2.8 4.52832 6.25V60H24.4528V57.5H7.01889V6.25C7.01889 4.175 8.68757 2.5 10.7547 2.5H34.4151V20H51.8491V57.5H46.8679V60H54.3396V18.225L36.1834 0ZM36.9057 4.275L50.0808 17.5H36.9057V4.275ZM35.6604 32.5C30.8536 32.5 26.9434 36.425 26.9434 41.25C26.9434 43.625 27.8898 45.8 29.434 47.375V60L35.6604 55.3L41.8868 60V47.375C43.431 45.8 44.3774 43.625 44.3774 41.25C44.3774 36.425 40.4672 32.5 35.6604 32.5ZM35.6604 35C39.0974 35 41.8868 37.8 41.8868 41.25C41.8868 44.7 39.0974 47.5 35.6604 47.5C32.2234 47.5 29.434 44.7 29.434 41.25C29.434 37.8 32.2234 35 35.6604 35ZM35.6604 52.2L31.9245 55V49.15C33.0453 49.7 34.3155 50 35.6604 50C37.0053 50 38.2755 49.7 39.3962 49.15V55L35.6604 52.2Z" fill="#FEA903"/>
</svg>
